<svg xmlns="http://www.w3.org/2000/svg" width="256" height="256" viewBox="0 0 256 256" role="img" aria-label="Team Artists badge"><defs><linearGradient id="ga" x1="0" x2="1" y1="0" y2="1"><stop offset="0" stop-color="#ffb8ff"/><stop offset="1" stop-color="#ff2db3"/></linearGradient></defs><rect rx="28" ry="28" width="256" height="256" fill="url(#ga)"/><circle cx="128" cy="128" r="92" fill="rgba(255,255,255,0.15)"/><g fill="#fff"><path d="M66 150c0-30 28-54 62-54s62 24 62 54c0 18-16 32-36 32-6 0-11-3-14-8-3 5-8 8-14 8-20 0-36-14-36-32z"/><circle cx="94" cy="150" r="8" fill="#ff2db3"/><circle cx="118" cy="142" r="6" fill="#ff2db3"/><circle cx="148" cy="156" r="7" fill="#ff2db3"/></g><text x="128" y="214" font-family="Arial, Helvetica, sans-serif" font-size="28" font-weight="700" text-anchor="middle" fill="#5b003a">ARTISTS</text></svg>
